<svg width="145" height="32" viewBox="0 0 145 32" fill="none" xmlns="http://www.w3.org/2000/svg">
<rect width="145" height="32" rx="5" fill="#1BC5BD"/>
<path d="M20.6514 18.4023H16.4814L15.5449 21H14.1914L17.9922 11.0469H19.1406L22.9482 21H21.6016L20.6514 18.4023ZM16.8779 17.3223H20.2617L18.5664 12.667L16.8779 17.3223ZM25.4639 21H24.1992V10.5H25.4639V21ZM28.8682 21H27.6035V10.5H28.8682V21ZM34.0703 17.2402C34.0703 16.0872 34.3369 15.1712 34.8701 14.4922C35.4033 13.8086 36.1097 13.4668 36.9893 13.4668C37.8916 13.4668 38.5957 13.7858 39.1016 14.4238L39.1631 13.6035H40.3184V20.8223C40.3184 21.7793 40.0335 22.5335 39.4639 23.085C38.8988 23.6364 38.1377 23.9121 37.1807 23.9121C36.6475 23.9121 36.1257 23.7982 35.6152 23.5703C35.1048 23.3424 34.7152 23.0303 34.4463 22.6338L35.1025 21.875C35.6449 22.5449 36.3079 22.8799 37.0918 22.8799C37.707 22.8799 38.1855 22.7067 38.5273 22.3604C38.8737 22.014 39.0469 21.5264 39.0469 20.8975V20.2617C38.541 20.8451 37.8506 21.1367 36.9756 21.1367C36.1097 21.1367 35.4079 20.7881 34.8701 20.0908C34.3369 19.3936 34.0703 18.4434 34.0703 17.2402ZM35.3418 17.3838C35.3418 18.2178 35.5127 18.874 35.8545 19.3525C36.1963 19.8265 36.6748 20.0635 37.29 20.0635C38.0876 20.0635 38.6732 19.7012 39.0469 18.9766V15.5996C38.6595 14.8932 38.0785 14.54 37.3037 14.54C36.6885 14.54 36.2077 14.7793 35.8613 15.2578C35.515 15.7363 35.3418 16.445 35.3418 17.3838ZM46.7988 21C46.7259 20.8542 46.6667 20.5944 46.6211 20.2207C46.0332 20.8314 45.3314 21.1367 44.5156 21.1367C43.7865 21.1367 43.1872 20.9316 42.7178 20.5215C42.2529 20.1068 42.0205 19.5827 42.0205 18.9492C42.0205 18.179 42.3122 17.582 42.8955 17.1582C43.4834 16.7298 44.3083 16.5156 45.3701 16.5156H46.6006V15.9346C46.6006 15.4925 46.4684 15.1416 46.2041 14.8818C45.9398 14.6175 45.5501 14.4854 45.0352 14.4854C44.584 14.4854 44.2057 14.5993 43.9004 14.8271C43.5951 15.055 43.4424 15.3307 43.4424 15.6543H42.1709C42.1709 15.2852 42.3008 14.9297 42.5605 14.5879C42.8249 14.2415 43.1803 13.9681 43.627 13.7676C44.0781 13.5671 44.5726 13.4668 45.1104 13.4668C45.9626 13.4668 46.6302 13.681 47.1133 14.1094C47.5964 14.5332 47.847 15.1188 47.8652 15.8662V19.2705C47.8652 19.9495 47.9518 20.4896 48.125 20.8906V21H46.7988ZM44.7002 20.0361C45.0967 20.0361 45.4727 19.9336 45.8281 19.7285C46.1836 19.5234 46.4411 19.2568 46.6006 18.9287V17.4111H45.6094C44.0599 17.4111 43.2852 17.8646 43.2852 18.7715C43.2852 19.168 43.4173 19.4779 43.6816 19.7012C43.946 19.9245 44.2855 20.0361 44.7002 20.0361ZM51.5635 11.8125V13.6035H52.9443V14.5811H51.5635V19.168C51.5635 19.4642 51.625 19.6875 51.748 19.8379C51.8711 19.9837 52.0807 20.0566 52.377 20.0566C52.5228 20.0566 52.7233 20.0293 52.9785 19.9746V21C52.6458 21.0911 52.3223 21.1367 52.0078 21.1367C51.4427 21.1367 51.0166 20.9658 50.7295 20.624C50.4424 20.2822 50.2988 19.7969 50.2988 19.168V14.5811H48.9521V13.6035H50.2988V11.8125H51.5635ZM57.4971 21.1367C56.4945 21.1367 55.6787 20.8086 55.0498 20.1523C54.4209 19.4915 54.1064 18.6097 54.1064 17.5068V17.2744C54.1064 16.5407 54.2454 15.8867 54.5234 15.3125C54.806 14.7337 55.1979 14.2826 55.6992 13.959C56.2051 13.6309 56.752 13.4668 57.3398 13.4668C58.3014 13.4668 59.0488 13.7835 59.582 14.417C60.1152 15.0505 60.3818 15.9574 60.3818 17.1377V17.6641H55.3711C55.3893 18.3932 55.6012 18.9834 56.0068 19.4346C56.417 19.8812 56.9365 20.1045 57.5654 20.1045C58.012 20.1045 58.3903 20.0133 58.7002 19.8311C59.0101 19.6488 59.2812 19.4072 59.5137 19.1064L60.2861 19.708C59.6663 20.6605 58.7367 21.1367 57.4971 21.1367ZM57.3398 14.5059C56.8294 14.5059 56.401 14.6927 56.0547 15.0664C55.7083 15.4355 55.4941 15.9551 55.4121 16.625H59.1172V16.5293C59.0807 15.8867 58.9076 15.39 58.5977 15.0391C58.2878 14.6836 57.8685 14.5059 57.3398 14.5059ZM68.4004 19.2568L69.8223 13.6035H71.0869L68.9336 21H67.9082L66.1104 15.3945L64.3604 21H63.335L61.1885 13.6035H62.4463L63.9023 19.1406L65.625 13.6035H66.6436L68.4004 19.2568ZM76.9453 21C76.8724 20.8542 76.8132 20.5944 76.7676 20.2207C76.1797 20.8314 75.4779 21.1367 74.6621 21.1367C73.9329 21.1367 73.3337 20.9316 72.8643 20.5215C72.3994 20.1068 72.167 19.5827 72.167 18.9492C72.167 18.179 72.4587 17.582 73.042 17.1582C73.6299 16.7298 74.4548 16.5156 75.5166 16.5156H76.7471V15.9346C76.7471 15.4925 76.6149 15.1416 76.3506 14.8818C76.0863 14.6175 75.6966 14.4854 75.1816 14.4854C74.7305 14.4854 74.3522 14.5993 74.0469 14.8271C73.7415 15.055 73.5889 15.3307 73.5889 15.6543H72.3174C72.3174 15.2852 72.4473 14.9297 72.707 14.5879C72.9714 14.2415 73.3268 13.9681 73.7734 13.7676C74.2246 13.5671 74.7191 13.4668 75.2568 13.4668C76.109 13.4668 76.7767 13.681 77.2598 14.1094C77.7428 14.5332 77.9935 15.1188 78.0117 15.8662V19.2705C78.0117 19.9495 78.0983 20.4896 78.2715 20.8906V21H76.9453ZM74.8467 20.0361C75.2432 20.0361 75.6191 19.9336 75.9746 19.7285C76.3301 19.5234 76.5876 19.2568 76.7471 18.9287V17.4111H75.7559C74.2064 17.4111 73.4316 17.8646 73.4316 18.7715C73.4316 19.168 73.5638 19.4779 73.8281 19.7012C74.0924 19.9245 74.432 20.0361 74.8467 20.0361ZM82.3047 19.1475L84.0273 13.6035H85.3809L82.4072 22.1416C81.9469 23.3721 81.2155 23.9873 80.2129 23.9873L79.9736 23.9668L79.502 23.8779V22.8525L79.8438 22.8799C80.2721 22.8799 80.6048 22.7933 80.8418 22.6201C81.0833 22.4469 81.2816 22.1302 81.4365 21.6699L81.7168 20.918L79.0781 13.6035H80.459L82.3047 19.1475ZM90.8223 19.0381C90.8223 18.6963 90.6924 18.432 90.4326 18.2451C90.1774 18.0537 89.7285 17.8896 89.0859 17.7529C88.4479 17.6162 87.9398 17.4521 87.5615 17.2607C87.1878 17.0693 86.9098 16.8415 86.7275 16.5771C86.5498 16.3128 86.4609 15.9984 86.4609 15.6338C86.4609 15.0277 86.7161 14.515 87.2266 14.0957C87.7415 13.6764 88.3978 13.4668 89.1953 13.4668C90.0339 13.4668 90.7129 13.6833 91.2324 14.1162C91.7565 14.5492 92.0186 15.1029 92.0186 15.7773H90.7471C90.7471 15.431 90.599 15.1325 90.3027 14.8818C90.0111 14.6312 89.6419 14.5059 89.1953 14.5059C88.735 14.5059 88.375 14.6061 88.1152 14.8066C87.8555 15.0072 87.7256 15.2692 87.7256 15.5928C87.7256 15.8981 87.8464 16.1283 88.0879 16.2832C88.3294 16.4382 88.7646 16.5863 89.3936 16.7275C90.027 16.8688 90.5397 17.0374 90.9316 17.2334C91.3236 17.4294 91.613 17.6663 91.7998 17.9443C91.9912 18.2178 92.0869 18.5527 92.0869 18.9492C92.0869 19.61 91.8226 20.141 91.2939 20.542C90.7653 20.9385 90.0794 21.1367 89.2363 21.1367C88.6439 21.1367 88.1198 21.0319 87.6641 20.8223C87.2083 20.6126 86.8506 20.321 86.5908 19.9473C86.3356 19.569 86.208 19.1611 86.208 18.7236H87.4727C87.4954 19.1475 87.6641 19.4847 87.9785 19.7354C88.2975 19.9814 88.7168 20.1045 89.2363 20.1045C89.7148 20.1045 90.0977 20.0088 90.3848 19.8174C90.6764 19.6214 90.8223 19.3617 90.8223 19.0381Z" fill="white"/>
<path d="M126 23L119.938 12.5L132.062 12.5L126 23Z" fill="white"/>
</svg>
