<svg width="26" height="219" viewBox="0 0 26 219" fill="none" xmlns="http://www.w3.org/2000/svg">
<path fill-rule="evenodd" clip-rule="evenodd" d="M12.0069 50.1261C11.8872 49.6312 11.6349 49.1783 11.2769 48.8161C10.9256 48.4626 10.4877 48.2075 10.0069 48.0761C9.62727 48.0111 9.24167 47.9876 8.85693 48.0061H4.23693C3.86507 47.9891 3.49251 48.0159 3.12693 48.0861C2.63029 48.2014 2.17624 48.4544 1.81693 48.8161C1.45618 49.1777 1.20041 49.6305 1.07693 50.1261C1.01553 50.4927 0.99207 50.8647 1.00693 51.2361V55.8561C0.9859 56.2413 1.01277 56.6275 1.08693 57.0061C1.19992 57.5065 1.45314 57.9644 1.81693 58.3261C2.18492 58.6658 2.63731 58.9007 3.12693 59.0061C3.49251 59.0763 3.86507 59.1031 4.23693 59.0861H8.85693C9.2421 59.1071 9.62839 59.0803 10.0069 59.0061C10.5058 58.8891 10.9626 58.6364 11.3269 58.2761C11.6594 57.9185 11.8936 57.481 12.0069 57.0061C12.077 56.6439 12.1039 56.2746 12.0869 55.9061V51.2361C12.1039 50.8642 12.0771 50.4917 12.0069 50.1261ZM10.2369 55.7561C10.2621 56.0121 10.2621 56.27 10.2369 56.5261C10.2098 56.7054 10.1297 56.8726 10.0069 57.0061C9.88652 57.1289 9.73409 57.2155 9.56693 57.2561C9.31049 57.2711 9.05338 57.2711 8.79693 57.2561H4.32693C4.07088 57.2813 3.81298 57.2813 3.55693 57.2561C3.39336 57.2138 3.24459 57.1273 3.12693 57.0061C3.00086 56.8882 2.91366 56.7347 2.87693 56.5661C2.85537 56.3099 2.85537 56.0523 2.87693 55.7961V51.3261C2.85578 51.0699 2.85578 50.8123 2.87693 50.5561C2.92116 50.3904 3.00725 50.2389 3.12693 50.1161C3.24579 49.9985 3.39445 49.9155 3.55693 49.8761C3.81318 49.8554 4.07068 49.8554 4.32693 49.8761H8.75693C9.01316 49.8549 9.2707 49.8549 9.52693 49.8761C9.70838 49.9094 9.87562 49.9965 10.0069 50.1261C10.1274 50.2444 10.2137 50.3929 10.2569 50.5561C10.2716 50.8125 10.2716 51.0696 10.2569 51.3261L10.2369 55.7561Z" fill="#B3B3B3"/>
<path fill-rule="evenodd" clip-rule="evenodd" d="M24.9269 50.1263C24.812 49.6348 24.5649 49.184 24.2124 48.8227C23.8599 48.4614 23.4154 48.2033 22.9269 48.0763C22.5471 48.0124 22.1617 47.989 21.7769 48.0063H17.1569C16.7718 47.9865 16.3856 48.0134 16.0069 48.0863C15.5103 48.2015 15.0562 48.4546 14.6969 48.8163C14.3536 49.1831 14.1152 49.6356 14.0069 50.1263C13.9368 50.4918 13.9099 50.8644 13.9269 51.2363V55.8563C13.9059 56.2414 13.9328 56.6277 14.0069 57.0063C14.1259 57.4905 14.3751 57.9329 14.7277 58.2855C15.0803 58.6381 15.5227 58.8873 16.0069 59.0063C16.3726 59.076 16.7451 59.1028 17.1169 59.0863H21.7369C22.1221 59.106 22.5082 59.0791 22.8869 59.0063C23.3818 58.8866 23.8348 58.6342 24.1969 58.2763C24.5475 57.9243 24.7993 57.4863 24.9269 57.0063C25.0011 56.6277 25.028 56.2414 25.0069 55.8563V51.2363C25.0239 50.8644 24.9971 50.4918 24.9269 50.1263ZM23.1569 55.7563C23.1716 56.0127 23.1716 56.2698 23.1569 56.5263C23.1104 56.6906 23.0226 56.8404 22.9018 56.9611C22.781 57.0819 22.6313 57.1698 22.4669 57.2163C22.2138 57.2312 21.96 57.2312 21.7069 57.2163H17.2469C16.9942 57.2418 16.7396 57.2418 16.4869 57.2163C16.3098 57.1948 16.1429 57.1218 16.0069 57.0063C15.8841 56.8859 15.7975 56.7334 15.7569 56.5663C15.7419 56.3098 15.7419 56.0527 15.7569 55.7963V51.3263C15.7358 51.07 15.7358 50.8125 15.7569 50.5563C15.8012 50.3906 15.8873 50.2391 16.0069 50.1163C16.1282 49.9967 16.2807 49.9135 16.4469 49.8763C16.6998 49.8548 16.9541 49.8548 17.2069 49.8763H21.6469C21.9032 49.8556 22.1607 49.8556 22.4169 49.8763C22.5783 49.9233 22.7252 50.0103 22.844 50.1292C22.9629 50.248 23.0499 50.3949 23.0969 50.5563C23.1181 50.8125 23.1181 51.07 23.0969 51.3263L23.1569 55.7563Z" fill="#CDCCCC"/>
<path fill-rule="evenodd" clip-rule="evenodd" d="M12.0069 63.0063C11.888 62.5221 11.6387 62.0797 11.2861 61.7271C10.9336 61.3746 10.4912 61.1253 10.0069 61.0063C9.64472 60.9362 9.27547 60.9094 8.90693 60.9263H4.23693C3.86507 60.9093 3.4925 60.9362 3.12693 61.0063C2.63201 61.126 2.17909 61.3784 1.81693 61.7363C1.46162 62.0846 1.20906 62.524 1.08693 63.0063C1.01406 63.3851 0.9872 63.7712 1.00693 64.1563V68.7763C0.992416 69.1478 1.01587 69.5197 1.07693 69.8863C1.20397 70.3748 1.46209 70.8194 1.82339 71.1718C2.18469 71.5243 2.63543 71.7714 3.12693 71.8863C3.49091 71.9699 3.86349 72.0102 4.23693 72.0063H8.85693C9.24209 72.0274 9.62838 72.0005 10.0069 71.9263C10.5049 71.8069 10.9611 71.5546 11.3269 71.1963C11.6667 70.8283 11.9015 70.376 12.0069 69.8863C12.0766 69.5207 12.1035 69.1482 12.0869 68.7763V64.1563C12.1067 63.7712 12.0798 63.3851 12.0069 63.0063ZM10.2369 68.6863C10.2518 68.9395 10.2518 69.1932 10.2369 69.4463C10.1904 69.6107 10.1026 69.7604 9.9818 69.8812C9.86101 70.002 9.7113 70.0898 9.54693 70.1363C9.29047 70.151 9.03338 70.151 8.77693 70.1363H4.32693C4.07069 70.1575 3.81316 70.1575 3.55693 70.1363C3.39557 70.0893 3.24867 70.0023 3.12982 69.8834C3.01097 69.7646 2.92399 69.6177 2.87693 69.4563C2.85622 69.2001 2.85622 68.9426 2.87693 68.6863V64.2463C2.85506 63.9935 2.85506 63.7392 2.87693 63.4863C2.90574 63.3034 2.99352 63.1348 3.12693 63.0063C3.24521 62.8859 3.39375 62.7996 3.55693 62.7563C3.81316 62.7352 4.07069 62.7352 4.32693 62.7563H8.75693C9.01337 62.7413 9.27048 62.7413 9.52693 62.7563C9.70837 62.7897 9.87561 62.8768 10.0069 63.0063C10.1265 63.1276 10.2097 63.2801 10.2469 63.4463C10.2725 63.699 10.2725 63.9536 10.2469 64.2063L10.2369 68.6863Z" fill="#B3B3B3"/>
<path fill-rule="evenodd" clip-rule="evenodd" d="M24.9269 63.0062C24.807 62.5225 24.5574 62.0806 24.205 61.7282C23.8525 61.3758 23.4107 61.1261 22.9269 61.0062C22.5613 60.9365 22.1888 60.9096 21.8169 60.9262H17.1569C16.7718 60.9065 16.3857 60.9333 16.0069 61.0062C15.5232 61.1261 15.0813 61.3758 14.7289 61.7282C14.3765 62.0806 14.1269 62.5225 14.0069 63.0062C13.9372 63.3718 13.9104 63.7443 13.9269 64.1162V68.7362C13.9072 69.1213 13.9341 69.5075 14.0069 69.8862C14.1269 70.3699 14.3765 70.8118 14.7289 71.1642C15.0813 71.5166 15.5232 71.7662 16.0069 71.8862C16.3726 71.9559 16.7451 71.9827 17.1169 71.9662H21.7369C22.1088 71.9827 22.4813 71.9559 22.8469 71.8862C23.3436 71.7709 23.7976 71.5179 24.1569 71.1562C24.5149 70.794 24.7672 70.3411 24.8869 69.8462C24.9674 69.4952 25.0077 69.1363 25.0069 68.7762V64.1562C25.0267 63.771 24.9998 63.3849 24.9269 63.0062ZM23.1569 68.6462C23.1713 68.9027 23.1713 69.1597 23.1569 69.4162C23.1137 69.5794 23.0274 69.7279 22.9069 69.8462C22.7865 69.969 22.6341 70.0556 22.4669 70.0962C22.2141 70.1176 21.9598 70.1176 21.7069 70.0962H17.2469C16.9938 70.1111 16.7401 70.1111 16.4869 70.0962C16.3226 70.0497 16.1729 69.9619 16.0521 69.8411C15.9313 69.7203 15.8434 69.5706 15.7969 69.4062C15.7817 69.1531 15.7817 68.8993 15.7969 68.6462V64.2462C15.7755 63.9933 15.7755 63.7391 15.7969 63.4862C15.8434 63.3218 15.9313 63.1721 16.0521 63.0513C16.1729 62.9305 16.3226 62.8427 16.4869 62.7962C16.7401 62.7813 16.9938 62.7813 17.2469 62.7962H21.6869C21.9432 62.7755 22.2007 62.7755 22.4569 62.7962C22.6201 62.8394 22.7687 62.9258 22.8869 63.0462C23.0098 63.1666 23.0964 63.319 23.1369 63.4862C23.1584 63.7391 23.1584 63.9933 23.1369 64.2462L23.1569 68.6462Z" fill="#B3B3B3"/>
<path opacity="0.3" d="M19.6703 120.22C19.1793 120.215 18.7017 120.059 18.3027 119.772C17.9037 119.486 17.6026 119.084 17.4403 118.62C17.4403 118.53 17.4403 118.44 17.3603 118.44H9.44031C9.44031 118.53 9.44031 118.62 9.36031 118.62C9.23015 119.086 8.94967 119.495 8.56259 119.785C8.17551 120.074 7.70357 120.227 7.22031 120.22C6.98426 120.22 6.75789 120.314 6.59098 120.481C6.42407 120.648 6.33031 120.874 6.33031 121.11C6.33031 121.346 6.42407 121.573 6.59098 121.74C6.75789 121.907 6.98426 122 7.22031 122H19.6703C19.9064 122 20.1327 121.907 20.2996 121.74C20.4665 121.573 20.5603 121.346 20.5603 121.11C20.5603 120.874 20.4665 120.648 20.2996 120.481C20.1327 120.314 19.9064 120.22 19.6703 120.22Z" fill="black"/>
<path d="M15.2203 109.56H17.0003C17.2363 109.56 17.4627 109.467 17.6296 109.3C17.7965 109.133 17.8903 108.906 17.8903 108.67C17.8903 108.434 17.7965 108.208 17.6296 108.041C17.4627 107.874 17.2363 107.78 17.0003 107.78H15.2203C14.9843 107.78 14.7579 107.874 14.591 108.041C14.4241 108.208 14.3303 108.434 14.3303 108.67C14.3303 108.906 14.4241 109.133 14.591 109.3C14.7579 109.467 14.9843 109.56 15.2203 109.56Z" fill="#CDCCCC"/>
<path d="M23.2203 98.0003H3.67031C3.31819 97.9949 2.96857 98.0603 2.64219 98.1926C2.31582 98.3248 2.01932 98.5213 1.77031 98.7703C1.52129 99.0193 1.32482 99.3158 1.19256 99.6422C1.06029 99.9686 0.994912 100.318 1.00031 100.67V114C0.994912 114.352 1.06029 114.702 1.19256 115.028C1.32482 115.355 1.52129 115.651 1.77031 115.9C2.01932 116.149 2.31582 116.346 2.64219 116.478C2.96857 116.61 3.31819 116.676 3.67031 116.67H23.2203C23.5724 116.676 23.922 116.61 24.2484 116.478C24.5748 116.346 24.8713 116.149 25.1203 115.9C25.3693 115.651 25.5658 115.355 25.6981 115.028C25.8303 114.702 25.8957 114.352 25.8903 114V100.67C25.8957 100.318 25.8303 99.9686 25.6981 99.6422C25.5658 99.3158 25.3693 99.0193 25.1203 98.7703C24.8713 98.5213 24.5748 98.3248 24.2484 98.1926C23.922 98.0603 23.5724 97.9949 23.2203 98.0003ZM20.5603 110.44C20.5603 110.674 20.5143 110.906 20.4248 111.121C20.3354 111.337 20.2042 111.534 20.039 111.699C19.8737 111.864 19.6774 111.995 19.4615 112.085C19.2455 112.174 19.0141 112.22 18.7803 112.22H8.11031C7.63822 112.22 7.18547 112.033 6.85166 111.699C6.51784 111.365 6.33031 110.912 6.33031 110.44V106.89H20.5603V110.44ZM20.5603 105.11H6.33031V104.22C6.33031 103.748 6.51784 103.295 6.85166 102.962C7.18547 102.628 7.63822 102.44 8.11031 102.44H18.7803C19.0141 102.44 19.2455 102.486 19.4615 102.576C19.6774 102.665 19.8737 102.796 20.039 102.962C20.2042 103.127 20.3354 103.323 20.4248 103.539C20.5143 103.755 20.5603 103.987 20.5603 104.22V105.11Z" fill="#CDCCCC"/>
<path d="M12.545 207.78C12.6956 207.781 12.8449 207.753 12.9843 207.696C13.1238 207.639 13.2507 207.556 13.3576 207.45C13.4645 207.344 13.5494 207.218 13.6073 207.079C13.6652 206.94 13.695 206.791 13.695 206.64V195.15C13.6933 194.846 13.5711 194.554 13.355 194.34C13.2492 194.233 13.1231 194.147 12.9841 194.089C12.845 194.031 12.6958 194 12.545 194C12.394 193.999 12.2442 194.028 12.1049 194.087C11.9657 194.145 11.8398 194.231 11.735 194.34C11.6262 194.445 11.5399 194.571 11.4815 194.71C11.423 194.849 11.3936 194.999 11.395 195.15V206.64C11.395 206.791 11.4248 206.94 11.4827 207.079C11.5406 207.218 11.6255 207.344 11.7324 207.45C11.8394 207.556 11.9662 207.639 12.1057 207.696C12.2451 207.753 12.3945 207.781 12.545 207.78Z" fill="#B3B3B3"/>
<path d="M17.815 196.42C17.5421 196.283 17.2262 196.258 16.935 196.35C16.7911 196.396 16.6578 196.47 16.5428 196.568C16.4278 196.666 16.3334 196.786 16.265 196.92C16.1243 197.192 16.0956 197.508 16.185 197.8C16.2816 198.089 16.4858 198.329 16.755 198.47C17.8953 199.056 18.9005 199.873 19.7061 200.87C20.5117 201.867 21.0998 203.022 21.4326 204.26C21.7654 205.497 21.8356 206.791 21.6386 208.058C21.4417 209.324 20.982 210.536 20.289 211.614C19.596 212.692 18.6852 213.614 17.6149 214.319C16.5446 215.025 15.3386 215.498 14.0744 215.71C12.8102 215.921 11.5157 215.866 10.2741 215.548C9.0325 215.229 7.87127 214.654 6.86501 213.86C5.65532 212.91 4.70369 211.67 4.09738 210.256C3.49107 208.842 3.24949 207.299 3.3948 205.767C3.54011 204.235 4.06765 202.764 4.92905 201.49C5.79044 200.215 6.95813 199.177 8.32501 198.47C8.45997 198.402 8.57921 198.307 8.67501 198.19C8.77104 198.074 8.84555 197.942 8.89501 197.8C8.92438 197.652 8.92438 197.499 8.89501 197.35C8.88114 197.201 8.84049 197.055 8.77501 196.92C8.70718 196.785 8.61179 196.666 8.49501 196.57C8.37698 196.472 8.24119 196.397 8.09501 196.35C7.95331 196.304 7.80355 196.287 7.65501 196.3C7.50185 196.311 7.35229 196.352 7.21501 196.42C4.92721 197.603 3.10291 199.519 2.03484 201.862C0.966772 204.206 0.716864 206.84 1.32522 209.342C1.93357 211.845 3.36492 214.07 5.38957 215.661C7.41422 217.253 9.91479 218.118 12.49 218.118C15.0652 218.118 17.5658 217.253 19.5904 215.661C21.6151 214.07 23.0464 211.845 23.6548 209.342C24.2632 206.84 24.0132 204.206 22.9452 201.862C21.8771 199.519 20.0528 197.603 17.765 196.42H17.815Z" fill="#CDCCCC"/>
<path d="M22.32 0H3.68C2.19988 0 1 1.19988 1 2.68V21.32C1 22.8001 2.19988 24 3.68 24H22.32C23.8001 24 25 22.8001 25 21.32V2.68C25 1.19988 23.8001 0 22.32 0Z" fill="#CDCCCC"/>
<path d="M13.82 10.5H12.17C11.8 10.5 11.5 10.8 11.5 11.17V20.33C11.5 20.7 11.8 21 12.17 21H13.82C14.19 21 14.49 20.7 14.49 20.33V11.17C14.49 10.8 14.19 10.5 13.82 10.5Z" fill="white"/>
<path d="M7.82999 16.5H6.17999C5.80996 16.5 5.50999 16.8 5.50999 17.17V20.33C5.50999 20.7 5.80996 21 6.17999 21H7.82999C8.20003 21 8.49999 20.7 8.49999 20.33V17.17C8.49999 16.8 8.20003 16.5 7.82999 16.5Z" fill="#B3B3B3"/>
<path d="M19.83 3H18.18C17.81 3 17.51 3.29997 17.51 3.67V20.33C17.51 20.7 17.81 21 18.18 21H19.83C20.2 21 20.5 20.7 20.5 20.33V3.67C20.5 3.29997 20.2 3 19.83 3Z" fill="#B3B3B3"/>
<path d="M24.882 156.21H12.772L4.21201 164.77C5.96049 166.31 8.1057 167.329 10.4041 167.711C12.7024 168.093 15.0619 167.823 17.2145 166.931C19.3671 166.04 21.2267 164.563 22.582 162.667C23.9373 160.772 24.7342 158.535 24.882 156.21Z" fill="#2DAEE5"/>
<path d="M3.112 163.66C1.57115 161.913 0.551492 159.768 0.168971 157.47C-0.213549 155.172 0.0564146 152.812 0.948167 150.66C1.83992 148.508 3.31768 146.649 5.21343 145.295C7.10917 143.941 9.34684 143.146 11.672 143V155.11L3.112 163.67V163.66Z" fill="#2DAEE5"/>
<path d="M13.232 143V154.65H24.882C24.6951 151.621 23.4077 148.766 21.262 146.62C19.1164 144.474 16.2606 143.187 13.232 143V143Z" fill="#005B97"/>
</svg>
