<svg width="272" height="271" viewBox="0 0 272 271" fill="none" xmlns="http://www.w3.org/2000/svg">
<path d="M270.999 135.756C270.999 113.018 265.233 90.6509 254.236 70.7368C243.24 50.8227 227.372 34.0099 208.11 21.8647L172.055 78.8103C181.686 84.8829 189.62 93.2893 195.118 103.246C200.616 113.203 203.5 124.387 203.5 135.756H270.999Z" fill="#FFC107" stroke="white"/>
<path d="M208.111 21.8648C187.411 8.81297 163.544 1.62488 139.065 1.07013L137.533 68.4131C149.772 68.6905 161.706 72.2845 172.056 78.8104L208.111 21.8648Z" fill="#6497B1" stroke="white"/>
<path d="M139.065 1.06989C117.794 0.587845 96.7105 5.12969 77.5332 14.325C58.356 23.5204 41.6281 37.1089 28.7138 53.9823C15.7995 70.8558 7.06441 90.5364 3.22098 111.419C-0.622457 132.302 0.534579 153.796 6.59767 174.148C12.6608 194.499 23.4583 213.133 38.1096 228.529C52.761 243.924 70.8513 255.646 90.9053 262.738C110.959 269.831 132.409 272.092 153.506 269.339C174.602 266.586 194.748 258.896 212.3 246.896L174.15 191.326C165.374 197.326 155.301 201.171 144.753 202.548C134.205 203.924 123.48 202.793 113.453 199.247C103.426 195.701 94.3804 189.84 87.0547 182.142C79.729 174.444 74.3303 165.128 71.2988 154.952C68.2672 144.776 67.6887 134.029 69.6104 123.588C71.5322 113.146 75.8996 103.306 82.3568 94.8691C88.8139 86.4324 97.1779 79.6382 106.767 75.0405C116.355 70.4428 126.897 68.1719 137.532 68.4129L139.065 1.06989Z" fill="#A259FF" stroke="white"/>
<path d="M212.3 246.896C230.396 234.524 245.198 217.937 255.426 198.572C265.654 179.207 270.999 157.646 270.999 135.756H203.5C203.5 146.701 200.827 157.482 195.713 167.164C190.599 176.847 183.198 185.14 174.15 191.326L212.3 246.896Z" fill="#F24E1E" stroke="white"/>
<path d="M25.5601 129.42V130.99H25.3257C24.2632 131.006 23.4142 131.298 22.7788 131.865C22.1434 132.433 21.7658 133.238 21.646 134.279C22.2554 133.639 23.034 133.318 23.9819 133.318C24.9871 133.318 25.7788 133.673 26.3569 134.381C26.9403 135.089 27.2319 136.003 27.2319 137.123C27.2319 138.279 26.8908 139.217 26.2085 139.936C25.5314 140.649 24.6408 141.006 23.5366 141.006C22.4012 141.006 21.4793 140.587 20.771 139.748C20.0679 138.91 19.7163 137.811 19.7163 136.451V135.803C19.7163 133.808 20.2007 132.245 21.1694 131.115C22.1434 129.985 23.5418 129.42 25.3647 129.42H25.5601ZM23.521 134.85C23.1043 134.85 22.7215 134.967 22.3726 135.201C22.0288 135.436 21.7762 135.748 21.6147 136.139V136.717C21.6147 137.561 21.7918 138.232 22.146 138.732C22.5002 139.227 22.9585 139.475 23.521 139.475C24.0835 139.475 24.5288 139.264 24.8569 138.842C25.1851 138.42 25.3491 137.865 25.3491 137.178C25.3491 136.49 25.1825 135.93 24.8491 135.498C24.5158 135.066 24.0731 134.85 23.521 134.85ZM36.1616 136.061C36.1616 137.696 35.8543 138.93 35.2397 139.764C34.6304 140.592 33.7007 141.006 32.4507 141.006C31.2215 141.006 30.2944 140.602 29.6694 139.795C29.0496 138.982 28.7319 137.782 28.7163 136.193V134.225C28.7163 132.589 29.021 131.363 29.6304 130.545C30.245 129.727 31.1799 129.318 32.4351 129.318C33.6799 129.318 34.6069 129.717 35.2163 130.514C35.8309 131.311 36.146 132.503 36.1616 134.092V136.061ZM34.2632 133.936C34.2632 132.868 34.1174 132.087 33.8257 131.592C33.534 131.092 33.0705 130.842 32.4351 130.842C31.8153 130.842 31.3595 131.079 31.0679 131.553C30.7762 132.022 30.6226 132.756 30.6069 133.756V136.334C30.6069 137.397 30.7554 138.188 31.0522 138.709C31.3491 139.23 31.8153 139.49 32.4507 139.49C33.0601 139.49 33.5106 139.251 33.8022 138.772C34.0939 138.287 34.2476 137.532 34.2632 136.506V133.936ZM37.7632 131.662C37.7632 130.975 37.9845 130.412 38.4272 129.975C38.87 129.532 39.4507 129.311 40.1694 129.311C40.8986 129.311 41.4819 129.532 41.9194 129.975C42.3621 130.412 42.5835 130.988 42.5835 131.701V132.264C42.5835 132.946 42.3621 133.506 41.9194 133.943C41.4819 134.381 40.9038 134.6 40.1851 134.6C39.4819 134.6 38.9012 134.386 38.4429 133.959C37.9897 133.527 37.7632 132.946 37.7632 132.217V131.662ZM39.0913 132.264C39.0913 132.623 39.1903 132.915 39.3882 133.139C39.5913 133.357 39.8569 133.467 40.1851 133.467C40.508 133.467 40.7684 133.357 40.9663 133.139C41.1642 132.915 41.2632 132.613 41.2632 132.232V131.662C41.2632 131.303 41.1616 131.011 40.9585 130.787C40.7606 130.563 40.4976 130.451 40.1694 130.451C39.8413 130.451 39.5783 130.566 39.3804 130.795C39.1877 131.019 39.0913 131.316 39.0913 131.686V132.264ZM43.2319 138.061C43.2319 137.363 43.4585 136.798 43.9116 136.365C44.3647 135.933 44.9429 135.717 45.646 135.717C46.3543 135.717 46.9325 135.933 47.3804 136.365C47.8335 136.798 48.0601 137.381 48.0601 138.115V138.67C48.0601 139.347 47.8413 139.907 47.4038 140.35C46.9715 140.787 46.3908 141.006 45.6616 141.006C44.9325 141.006 44.3439 140.79 43.896 140.357C43.4533 139.92 43.2319 139.344 43.2319 138.631V138.061ZM44.5601 138.67C44.5601 139.024 44.6616 139.316 44.8647 139.545C45.0731 139.769 45.3387 139.881 45.6616 139.881C45.995 139.881 46.2554 139.774 46.4429 139.561C46.6356 139.342 46.7319 139.037 46.7319 138.647V138.061C46.7319 137.696 46.6304 137.404 46.4272 137.186C46.2241 136.967 45.9637 136.857 45.646 136.857C45.3231 136.857 45.0601 136.967 44.8569 137.186C44.659 137.404 44.5601 137.706 44.5601 138.092V138.67ZM40.5757 139.998L39.5991 139.436L45.1538 130.545L46.1304 131.107L40.5757 139.998Z" fill="white"/>
<path d="M147.432 42.9377H145.542V33.8049L142.752 34.758V33.1564L147.19 31.5236H147.432V42.9377ZM158.799 38.1486C158.799 39.7841 158.492 41.0184 157.877 41.8518C157.268 42.6799 156.338 43.0939 155.088 43.0939C153.859 43.0939 152.932 42.6903 152.307 41.883C151.687 41.0705 151.37 39.87 151.354 38.2814V36.3127C151.354 34.6773 151.659 33.4507 152.268 32.633C152.883 31.8153 153.818 31.4064 155.073 31.4064C156.318 31.4064 157.245 31.8049 157.854 32.6018C158.469 33.3986 158.784 34.5913 158.799 36.1799V38.1486ZM156.901 36.0236C156.901 34.9559 156.755 34.1747 156.463 33.6799C156.172 33.1799 155.708 32.9299 155.073 32.9299C154.453 32.9299 153.997 33.1669 153.706 33.6408C153.414 34.1096 153.26 34.8439 153.245 35.8439V38.4221C153.245 39.4846 153.393 40.2762 153.69 40.7971C153.987 41.3179 154.453 41.5783 155.088 41.5783C155.698 41.5783 156.148 41.3387 156.44 40.8596C156.732 40.3752 156.885 39.62 156.901 38.5939V36.0236ZM160.401 33.7502C160.401 33.0627 160.622 32.5002 161.065 32.0627C161.508 31.62 162.088 31.3986 162.807 31.3986C163.536 31.3986 164.12 31.62 164.557 32.0627C165 32.5002 165.221 33.0757 165.221 33.7893V34.3518C165.221 35.0341 165 35.5939 164.557 36.0314C164.12 36.4689 163.542 36.6877 162.823 36.6877C162.12 36.6877 161.539 36.4742 161.081 36.0471C160.627 35.6148 160.401 35.0341 160.401 34.3049V33.7502ZM161.729 34.3518C161.729 34.7111 161.828 35.0028 162.026 35.2268C162.229 35.4455 162.495 35.5549 162.823 35.5549C163.146 35.5549 163.406 35.4455 163.604 35.2268C163.802 35.0028 163.901 34.7007 163.901 34.3205V33.7502C163.901 33.3908 163.799 33.0992 163.596 32.8752C163.398 32.6512 163.135 32.5393 162.807 32.5393C162.479 32.5393 162.216 32.6538 162.018 32.883C161.825 33.107 161.729 33.4038 161.729 33.7736V34.3518ZM165.87 40.1486C165.87 39.4507 166.096 38.8856 166.549 38.4533C167.002 38.021 167.581 37.8049 168.284 37.8049C168.992 37.8049 169.57 38.021 170.018 38.4533C170.471 38.8856 170.698 39.4689 170.698 40.2033V40.758C170.698 41.4351 170.479 41.995 170.042 42.4377C169.609 42.8752 169.028 43.0939 168.299 43.0939C167.57 43.0939 166.982 42.8778 166.534 42.4455C166.091 42.008 165.87 41.4325 165.87 40.7189V40.1486ZM167.198 40.758C167.198 41.1122 167.299 41.4038 167.502 41.633C167.711 41.857 167.976 41.9689 168.299 41.9689C168.633 41.9689 168.893 41.8622 169.081 41.6486C169.273 41.4299 169.37 41.1252 169.37 40.7346V40.1486C169.37 39.7841 169.268 39.4924 169.065 39.2736C168.862 39.0549 168.601 38.9455 168.284 38.9455C167.961 38.9455 167.698 39.0549 167.495 39.2736C167.297 39.4924 167.198 39.7945 167.198 40.1799V40.758ZM163.213 42.0861L162.237 41.5236L167.792 32.633L168.768 33.1955L163.213 42.0861Z" fill="white"/>
<path d="M213.695 92.3882H211.805V83.2554L209.016 84.2085V82.6069L213.453 80.9741H213.695V92.3882ZM218.156 86.7476L218.773 81.0132H224.883V82.6538H220.352L220.039 85.3726C220.565 85.0705 221.159 84.9194 221.82 84.9194C222.904 84.9194 223.745 85.2658 224.344 85.9585C224.948 86.6512 225.25 87.5835 225.25 88.7554C225.25 89.9116 224.917 90.8335 224.25 91.521C223.583 92.2033 222.669 92.5444 221.508 92.5444C220.466 92.5444 219.602 92.2502 218.914 91.6616C218.232 91.0679 217.862 90.2866 217.805 89.3179H219.641C219.714 89.87 219.911 90.2944 220.234 90.5913C220.557 90.883 220.979 91.0288 221.5 91.0288C222.083 91.0288 222.536 90.8205 222.859 90.4038C223.188 89.9871 223.352 89.4194 223.352 88.7007C223.352 88.008 223.172 87.4611 222.812 87.0601C222.453 86.6538 221.958 86.4507 221.328 86.4507C220.984 86.4507 220.693 86.4976 220.453 86.5913C220.214 86.6799 219.953 86.8569 219.672 87.1226L218.156 86.7476ZM226.664 83.2007C226.664 82.5132 226.885 81.9507 227.328 81.5132C227.771 81.0705 228.352 80.8491 229.07 80.8491C229.799 80.8491 230.383 81.0705 230.82 81.5132C231.263 81.9507 231.484 82.5262 231.484 83.2397V83.8022C231.484 84.4845 231.263 85.0444 230.82 85.4819C230.383 85.9194 229.805 86.1382 229.086 86.1382C228.383 86.1382 227.802 85.9246 227.344 85.4976C226.891 85.0653 226.664 84.4845 226.664 83.7554V83.2007ZM227.992 83.8022C227.992 84.1616 228.091 84.4533 228.289 84.6772C228.492 84.896 228.758 85.0054 229.086 85.0054C229.409 85.0054 229.669 84.896 229.867 84.6772C230.065 84.4533 230.164 84.1512 230.164 83.771V83.2007C230.164 82.8413 230.062 82.5496 229.859 82.3257C229.661 82.1017 229.398 81.9897 229.07 81.9897C228.742 81.9897 228.479 82.1043 228.281 82.3335C228.089 82.5575 227.992 82.8543 227.992 83.2241V83.8022ZM232.133 89.5991C232.133 88.9012 232.359 88.3361 232.812 87.9038C233.266 87.4715 233.844 87.2554 234.547 87.2554C235.255 87.2554 235.833 87.4715 236.281 87.9038C236.734 88.3361 236.961 88.9194 236.961 89.6538V90.2085C236.961 90.8856 236.742 91.4455 236.305 91.8882C235.872 92.3257 235.292 92.5444 234.562 92.5444C233.833 92.5444 233.245 92.3283 232.797 91.896C232.354 91.4585 232.133 90.883 232.133 90.1694V89.5991ZM233.461 90.2085C233.461 90.5627 233.562 90.8543 233.766 91.0835C233.974 91.3075 234.24 91.4194 234.562 91.4194C234.896 91.4194 235.156 91.3127 235.344 91.0991C235.536 90.8804 235.633 90.5757 235.633 90.1851V89.5991C235.633 89.2345 235.531 88.9429 235.328 88.7241C235.125 88.5054 234.865 88.396 234.547 88.396C234.224 88.396 233.961 88.5054 233.758 88.7241C233.56 88.9429 233.461 89.245 233.461 89.6304V90.2085ZM229.477 91.5366L228.5 90.9741L234.055 82.0835L235.031 82.646L229.477 91.5366Z" fill="white"/>
<path d="M214.684 187.333H212.793V178.2L210.004 179.153V177.552L214.442 175.919H214.684V187.333ZM219.145 181.692L219.762 175.958H225.872V177.599H221.34L221.028 180.317C221.554 180.015 222.148 179.864 222.809 179.864C223.892 179.864 224.734 180.211 225.333 180.903C225.937 181.596 226.239 182.528 226.239 183.7C226.239 184.857 225.905 185.778 225.239 186.466C224.572 187.148 223.658 187.489 222.497 187.489C221.455 187.489 220.59 187.195 219.903 186.607C219.221 186.013 218.851 185.232 218.793 184.263H220.629C220.702 184.815 220.9 185.239 221.223 185.536C221.546 185.828 221.968 185.974 222.489 185.974C223.072 185.974 223.525 185.765 223.848 185.349C224.176 184.932 224.34 184.364 224.34 183.646C224.34 182.953 224.161 182.406 223.801 182.005C223.442 181.599 222.947 181.396 222.317 181.396C221.973 181.396 221.681 181.442 221.442 181.536C221.202 181.625 220.942 181.802 220.661 182.067L219.145 181.692ZM227.653 178.146C227.653 177.458 227.874 176.896 228.317 176.458C228.76 176.015 229.34 175.794 230.059 175.794C230.788 175.794 231.372 176.015 231.809 176.458C232.252 176.896 232.473 177.471 232.473 178.185V178.747C232.473 179.429 232.252 179.989 231.809 180.427C231.372 180.864 230.793 181.083 230.075 181.083C229.372 181.083 228.791 180.87 228.333 180.442C227.879 180.01 227.653 179.429 227.653 178.7V178.146ZM228.981 178.747C228.981 179.107 229.08 179.398 229.278 179.622C229.481 179.841 229.747 179.95 230.075 179.95C230.398 179.95 230.658 179.841 230.856 179.622C231.054 179.398 231.153 179.096 231.153 178.716V178.146C231.153 177.786 231.051 177.495 230.848 177.271C230.65 177.047 230.387 176.935 230.059 176.935C229.731 176.935 229.468 177.049 229.27 177.278C229.077 177.502 228.981 177.799 228.981 178.169V178.747ZM233.122 184.544C233.122 183.846 233.348 183.281 233.801 182.849C234.254 182.416 234.833 182.2 235.536 182.2C236.244 182.2 236.822 182.416 237.27 182.849C237.723 183.281 237.95 183.864 237.95 184.599V185.153C237.95 185.83 237.731 186.39 237.293 186.833C236.861 187.271 236.28 187.489 235.551 187.489C234.822 187.489 234.234 187.273 233.786 186.841C233.343 186.403 233.122 185.828 233.122 185.114V184.544ZM234.45 185.153C234.45 185.508 234.551 185.799 234.754 186.028C234.963 186.252 235.228 186.364 235.551 186.364C235.885 186.364 236.145 186.258 236.333 186.044C236.525 185.825 236.622 185.521 236.622 185.13V184.544C236.622 184.179 236.52 183.888 236.317 183.669C236.114 183.45 235.853 183.341 235.536 183.341C235.213 183.341 234.95 183.45 234.747 183.669C234.549 183.888 234.45 184.19 234.45 184.575V185.153ZM230.465 186.482L229.489 185.919L235.043 177.028L236.02 177.591L230.465 186.482Z" fill="white"/>
</svg>
