<svg width="135" height="32" viewBox="0 0 135 32" fill="none" xmlns="http://www.w3.org/2000/svg">
<rect width="135" height="32" rx="5" fill="#1BC5BD"/>
<path d="M19.6514 18.4023H15.4814L14.5449 21H13.1914L16.9922 11.0469H18.1406L21.9482 21H20.6016L19.6514 18.4023ZM15.8779 17.3223H19.2617L17.5664 12.667L15.8779 17.3223ZM24.4639 21H23.1992V10.5H24.4639V21ZM27.8682 21H26.6035V10.5H27.8682V21ZM39.6191 17.3838C39.6191 18.5094 39.3617 19.4163 38.8467 20.1045C38.3317 20.7926 37.6344 21.1367 36.7549 21.1367C35.8571 21.1367 35.1507 20.8519 34.6357 20.2822V23.8438H33.3711V13.6035H34.5264L34.5879 14.4238C35.1029 13.7858 35.8184 13.4668 36.7344 13.4668C37.623 13.4668 38.3249 13.8018 38.8398 14.4717C39.3594 15.1416 39.6191 16.0736 39.6191 17.2676V17.3838ZM38.3545 17.2402C38.3545 16.4062 38.1768 15.7477 37.8213 15.2646C37.4658 14.7816 36.9782 14.54 36.3584 14.54C35.5928 14.54 35.0186 14.8796 34.6357 15.5586V19.0928C35.014 19.7673 35.5928 20.1045 36.3721 20.1045C36.9782 20.1045 37.459 19.8652 37.8145 19.3867C38.1745 18.9036 38.3545 18.1882 38.3545 17.2402ZM44.8076 14.7383C44.6162 14.7064 44.4089 14.6904 44.1855 14.6904C43.3561 14.6904 42.7933 15.0436 42.4971 15.75V21H41.2324V13.6035H42.4629L42.4834 14.458C42.8981 13.7972 43.486 13.4668 44.2471 13.4668C44.4932 13.4668 44.68 13.4987 44.8076 13.5625V14.7383ZM45.5049 17.2334C45.5049 16.5088 45.6462 15.8571 45.9287 15.2783C46.2158 14.6995 46.6123 14.2529 47.1182 13.9385C47.6286 13.624 48.2096 13.4668 48.8613 13.4668C49.8685 13.4668 50.682 13.8154 51.3018 14.5127C51.9261 15.21 52.2383 16.1374 52.2383 17.2949V17.3838C52.2383 18.1038 52.0993 18.751 51.8213 19.3252C51.5479 19.8949 51.1536 20.3392 50.6387 20.6582C50.1283 20.9772 49.5404 21.1367 48.875 21.1367C47.8724 21.1367 47.0589 20.7881 46.4346 20.0908C45.8148 19.3936 45.5049 18.4707 45.5049 17.3223V17.2334ZM46.7764 17.3838C46.7764 18.2041 46.9655 18.8626 47.3438 19.3594C47.7266 19.8561 48.237 20.1045 48.875 20.1045C49.5176 20.1045 50.028 19.8538 50.4062 19.3525C50.7845 18.8467 50.9736 18.1403 50.9736 17.2334C50.9736 16.4222 50.7799 15.766 50.3926 15.2646C50.0098 14.7588 49.4993 14.5059 48.8613 14.5059C48.237 14.5059 47.7334 14.7542 47.3506 15.251C46.9678 15.7477 46.7764 16.4587 46.7764 17.3838ZM55.1299 13.6035V21.8545C55.1299 23.2764 54.485 23.9873 53.1953 23.9873C52.9173 23.9873 52.6598 23.9463 52.4229 23.8643V22.8525C52.5687 22.889 52.7601 22.9072 52.9971 22.9072C53.2796 22.9072 53.4938 22.8298 53.6396 22.6748C53.79 22.5244 53.8652 22.2601 53.8652 21.8818V13.6035H55.1299ZM53.7354 11.6416C53.7354 11.4411 53.7969 11.2702 53.9199 11.1289C54.0475 10.9831 54.2321 10.9102 54.4736 10.9102C54.7197 10.9102 54.9066 10.9808 55.0342 11.1221C55.1618 11.2633 55.2256 11.4365 55.2256 11.6416C55.2256 11.8467 55.1618 12.0176 55.0342 12.1543C54.9066 12.291 54.7197 12.3594 54.4736 12.3594C54.2275 12.3594 54.043 12.291 53.9199 12.1543C53.7969 12.0176 53.7354 11.8467 53.7354 11.6416ZM60.2432 21.1367C59.2406 21.1367 58.4248 20.8086 57.7959 20.1523C57.167 19.4915 56.8525 18.6097 56.8525 17.5068V17.2744C56.8525 16.5407 56.9915 15.8867 57.2695 15.3125C57.5521 14.7337 57.944 14.2826 58.4453 13.959C58.9512 13.6309 59.498 13.4668 60.0859 13.4668C61.0475 13.4668 61.7949 13.7835 62.3281 14.417C62.8613 15.0505 63.1279 15.9574 63.1279 17.1377V17.6641H58.1172C58.1354 18.3932 58.3473 18.9834 58.7529 19.4346C59.1631 19.8812 59.6826 20.1045 60.3115 20.1045C60.7581 20.1045 61.1364 20.0133 61.4463 19.8311C61.7562 19.6488 62.0273 19.4072 62.2598 19.1064L63.0322 19.708C62.4124 20.6605 61.4827 21.1367 60.2432 21.1367ZM60.0859 14.5059C59.5755 14.5059 59.1471 14.6927 58.8008 15.0664C58.4544 15.4355 58.2402 15.9551 58.1582 16.625H61.8633V16.5293C61.8268 15.8867 61.6536 15.39 61.3438 15.0391C61.0339 14.6836 60.6146 14.5059 60.0859 14.5059ZM67.5645 20.1045C68.0156 20.1045 68.4098 19.9678 68.7471 19.6943C69.0843 19.4209 69.2712 19.0791 69.3076 18.6689H70.5039C70.4811 19.0928 70.3353 19.4961 70.0664 19.8789C69.7975 20.2617 69.4375 20.5671 68.9863 20.7949C68.5397 21.0228 68.0658 21.1367 67.5645 21.1367C66.5573 21.1367 65.7552 20.8018 65.1582 20.1318C64.5658 19.4574 64.2695 18.5368 64.2695 17.3701V17.1582C64.2695 16.4382 64.4017 15.7979 64.666 15.2373C64.9303 14.6768 65.3086 14.2415 65.8008 13.9316C66.2975 13.6217 66.8831 13.4668 67.5576 13.4668C68.387 13.4668 69.0752 13.7152 69.6221 14.2119C70.1735 14.7087 70.4674 15.3535 70.5039 16.1465H69.3076C69.2712 15.668 69.0889 15.276 68.7607 14.9707C68.4372 14.6608 68.0361 14.5059 67.5576 14.5059C66.915 14.5059 66.416 14.7383 66.0605 15.2031C65.7096 15.6634 65.5342 16.3311 65.5342 17.2061V17.4453C65.5342 18.2975 65.7096 18.9538 66.0605 19.4141C66.4115 19.8743 66.9128 20.1045 67.5645 20.1045ZM73.6416 11.8125V13.6035H75.0225V14.5811H73.6416V19.168C73.6416 19.4642 73.7031 19.6875 73.8262 19.8379C73.9492 19.9837 74.1589 20.0566 74.4551 20.0566C74.6009 20.0566 74.8014 20.0293 75.0566 19.9746V21C74.724 21.0911 74.4004 21.1367 74.0859 21.1367C73.5208 21.1367 73.0947 20.9658 72.8076 20.624C72.5205 20.2822 72.377 19.7969 72.377 19.168V14.5811H71.0303V13.6035H72.377V11.8125H73.6416ZM80.8125 19.0381C80.8125 18.6963 80.6826 18.432 80.4229 18.2451C80.1676 18.0537 79.7188 17.8896 79.0762 17.7529C78.4382 17.6162 77.93 17.4521 77.5518 17.2607C77.1781 17.0693 76.9001 16.8415 76.7178 16.5771C76.54 16.3128 76.4512 15.9984 76.4512 15.6338C76.4512 15.0277 76.7064 14.515 77.2168 14.0957C77.7318 13.6764 78.388 13.4668 79.1855 13.4668C80.0241 13.4668 80.7031 13.6833 81.2227 14.1162C81.7467 14.5492 82.0088 15.1029 82.0088 15.7773H80.7373C80.7373 15.431 80.5892 15.1325 80.293 14.8818C80.0013 14.6312 79.6322 14.5059 79.1855 14.5059C78.7253 14.5059 78.3652 14.6061 78.1055 14.8066C77.8457 15.0072 77.7158 15.2692 77.7158 15.5928C77.7158 15.8981 77.8366 16.1283 78.0781 16.2832C78.3197 16.4382 78.7549 16.5863 79.3838 16.7275C80.0173 16.8688 80.5299 17.0374 80.9219 17.2334C81.3138 17.4294 81.6032 17.6663 81.79 17.9443C81.9814 18.2178 82.0771 18.5527 82.0771 18.9492C82.0771 19.61 81.8128 20.141 81.2842 20.542C80.7555 20.9385 80.0697 21.1367 79.2266 21.1367C78.6341 21.1367 78.11 21.0319 77.6543 20.8223C77.1986 20.6126 76.8408 20.321 76.5811 19.9473C76.3258 19.569 76.1982 19.1611 76.1982 18.7236H77.4629C77.4857 19.1475 77.6543 19.4847 77.9688 19.7354C78.2878 19.9814 78.707 20.1045 79.2266 20.1045C79.7051 20.1045 80.0879 20.0088 80.375 19.8174C80.6667 19.6214 80.8125 19.3617 80.8125 19.0381Z" fill="white"/>
<path d="M116 23L109.938 12.5L122.062 12.5L116 23Z" fill="white"/>
</svg>
